# xmcd
#
# Track frame offsets: 
#        150
#        14170
#        25310
#        41489
#        53716
#        68331
#        87631
#        103032
#        113849
#        126448
#
# Disc length: 1863 seconds
#
# Revision: 0
# Processed by: cddbd v1.5.2PL0 Copyright (c) Steve Scherf et al.
# Submitted via: ExactAudioCopyFreeDBPlugin 1.0
#
DISCID=8607450a
DTITLE=Iron Mike Norton - Sledge
DYEAR=2007
DGENRE=Blues
TTITLE0=Black Bottom Blues
TTITLE1=Sledge
TTITLE2=Mamie
TTITLE3=U Crazy
TTITLE4=Beer and Loafing
TTITLE5=Big Poppa Soul Bender's House Of Voodoo
TTITLE6=Funky Monkey
TTITLE7=Freight Train Annie
TTITLE8=Ain'tchoo Damn Bidness
TTITLE9=Hillbilly Holla
EXTD=
EXTT0=
EXTT1=
EXTT2=
EXTT3=
EXTT4=
EXTT5=
EXTT6=
EXTT7=
EXTT8=
EXTT9=
PLAYORDER=
